<svg height="512" viewBox="0 0 128 128" width="512" xmlns="http://www.w3.org/2000/svg"><g><path d="m24.357 100.856h35.976a1.749 1.749 0 0 0 1.75-1.75v-76.789a1.75 1.75 0 0 0 -1.75-1.75h-35.976a1.751 1.751 0 0 0 -1.75 1.75v76.789a1.75 1.75 0 0 0 1.75 1.75zm1.75-76.789h32.476v73.289h-32.476z"/><path d="m111 13.221h-94a1.749 1.749 0 0 0 -1.75 1.75v91.482a1.749 1.749 0 0 0 1.75 1.747h2.5v4.826a1.749 1.749 0 0 0 1.75 1.75h85.5a1.749 1.749 0 0 0 1.75-1.75v-4.826h2.5a1.749 1.749 0 0 0 1.75-1.75v-91.479a1.749 1.749 0 0 0 -1.75-1.75zm-6 98.058h-82v-3.079h82zm4.251-6.576h-90.501v-87.982h90.5z"/><path d="m67.679 100.856h35.975a1.749 1.749 0 0 0 1.75-1.75v-76.789a1.75 1.75 0 0 0 -1.75-1.75h-35.975a1.75 1.75 0 0 0 -1.75 1.75v76.789a1.749 1.749 0 0 0 1.75 1.75zm1.75-76.789h32.471v73.289h-32.471z"/><path d="m52.209 53.449a1.749 1.749 0 0 0 -1.75 1.75v11.026a1.75 1.75 0 0 0 3.5 0v-11.025a1.749 1.749 0 0 0 -1.75-1.751z"/><path d="m75.8 53.449a1.749 1.749 0 0 0 -1.75 1.75v11.026a1.75 1.75 0 0 0 3.5 0v-11.025a1.749 1.749 0 0 0 -1.75-1.751z"/></g></svg>