<svg id="Layer_1" enable-background="new 0 0 512 512" viewBox="0 0 512 512" xmlns="http://www.w3.org/2000/svg"><path d="m330.79 248.38-14.75 8.52 11.49 5.04c3.04 1.33 4.42 4.87 3.08 7.91-.99 2.25-3.19 3.59-5.5 3.59-.81 0-1.62-.16-2.41-.51l-19.56-8.59-35.14 20.29 35.15 20.29 19.56-8.59c3.04-1.33 6.57.05 7.91 3.08 1.33 3.03-.05 6.57-3.08 7.91l-11.49 5.04 14.75 8.52c2.87 1.66 3.85 5.33 2.2 8.2-1.11 1.92-3.13 3-5.2 3-1.02 0-2.05-.26-2.99-.8l-14.75-8.52 1.38 12.47c.36 3.29-2.01 6.26-5.31 6.62-.22.02-.45.04-.67.04-3.02 0-5.62-2.27-5.96-5.34l-2.34-21.23-35.16-20.29v40.58l17.22 12.65c2.67 1.96 3.25 5.72 1.28 8.39-1.18 1.6-3 2.45-4.84 2.45-1.23 0-2.48-.38-3.55-1.16l-10.11-7.44v17.04c0 3.31-2.69 6-6 6s-6-2.69-6-6v-17.04l-10.11 7.43c-2.67 1.96-6.43 1.39-8.39-1.28s-1.39-6.43 1.28-8.39l17.22-12.65v-40.58l-35.15 20.29-2.34 21.23c-.34 3.07-2.94 5.34-5.96 5.34-.22 0-.44-.01-.67-.04-3.29-.36-5.67-3.33-5.31-6.62l1.38-12.47-14.75 8.52c-.94.54-1.98.8-2.99.8-2.07 0-4.09-1.08-5.2-3-1.66-2.87-.67-6.54 2.2-8.2l14.75-8.52-11.49-5.04c-3.03-1.33-4.41-4.87-3.08-7.91s4.87-4.41 7.91-3.08l19.56 8.59 35.14-20.29-35.15-20.29-19.56 8.59c-.78.34-1.6.51-2.41.51-2.31 0-4.51-1.34-5.5-3.59-1.33-3.03.05-6.57 3.08-7.91l11.49-5.04-14.75-8.52c-2.87-1.66-3.85-5.33-2.2-8.2 1.66-2.87 5.32-3.85 8.2-2.2l14.75 8.52-1.38-12.47c-.36-3.29 2.01-6.26 5.31-6.62 3.27-.37 6.26 2.01 6.62 5.31l2.34 21.23 35.16 20.29v-40.58l-17.22-12.65c-2.67-1.96-3.25-5.72-1.28-8.39s5.72-3.25 8.39-1.28l10.11 7.43v-17.04c0-3.31 2.69-6 6-6s6 2.69 6 6v17.04l10.11-7.43c2.67-1.96 6.43-1.39 8.39 1.28s1.39 6.43-1.28 8.39l-17.22 12.65v40.58l35.15-20.29 2.34-21.23c.36-3.29 3.34-5.67 6.62-5.31 3.29.36 5.67 3.33 5.31 6.62l-1.38 12.47 14.75-8.52c2.87-1.66 6.54-.67 8.2 2.2s.67 6.54-2.2 8.2zm166.21-184.79v348.1c0 3.31-2.69 6-6 6h-50.1v30.71c0 3.31-2.69 6-6 6h-66.46c-2.17 0-4.17-1.17-5.23-3.06l-18.92-33.65h-176.58l-18.92 33.65c-1.06 1.89-3.06 3.06-5.23 3.06h-66.46c-3.31 0-6-2.69-6-6v-30.71h-50.1c-3.31 0-6-2.69-6-6v-348.1c0-3.31 2.69-6 6-6h470c3.31 0 6 2.69 6 6zm-470 6v46.41h458v-46.41zm161.93 58.41 14.15 23.58h105.84l14.15-23.58zm-34.99 289.69h-70.84v24.71h56.95zm274.96 0h-70.84l13.89 24.71h56.95zm56.1-12v-277.69h-147.93l-19.61 32.66c-1.08 1.81-3.04 2.91-5.14 2.91h-112.64c-2.11 0-4.06-1.11-5.14-2.91l-19.61-32.66h-147.93v277.69z"/></svg>