<svg id="Glyph" height="512" viewBox="0 0 64 64" width="512" xmlns="http://www.w3.org/2000/svg"><rect height="4.755" rx="1.965" width="47.472" x="8.264" y="25.132"/><path d="m10.79858 57.82775a2.66668 2.66668 0 0 0 2.66248 2.67225h37.07788a2.66668 2.66668 0 0 0 2.66248-2.67225v-25.97614h-42.40284zm3.36982-19.79652a2.94341 2.94341 0 0 1 2.94737-2.94737h29.76846a2.94341 2.94341 0 0 1 2.94737 2.94737v16.28914a2.94345 2.94345 0 0 1 -2.94737 2.94737h-29.76846a2.94345 2.94345 0 0 1 -2.94737-2.94737z"/><path d="m47.86669 54.32037v-16.28914a.98245.98245 0 0 0 -.98246-.98245h-12.90177a1 1 0 0 0 -1 1v16.25405a1 1 0 0 0 1 1h12.90177a.98246.98246 0 0 0 .98246-.98246zm-10.66952-6.46458a.98262.98262 0 0 1 -1.96491-.00005v-3.36974a.98246.98246 0 1 1 1.96491 0z"/><path d="m17.11577 55.30283h12.90177a1 1 0 0 0 1-1v-16.254a1 1 0 0 0 -1-1h-12.90177a.98245.98245 0 0 0 -.98246.98245v16.28909a.98246.98246 0 0 0 .98246.98246zm9.68706-10.81683a.98257.98257 0 0 1 1.96491 0v3.36977a.98262.98262 0 0 1 -1.96491-.00005z"/><path d="m11.781 19.69857h18.25409a.98242.98242 0 0 0 .98245-.98246v-13.23365a.98242.98242 0 0 0 -.98245-.98246h-18.25409a.97906.97906 0 0 0 -.98246.98246v13.23365a.98243.98243 0 0 0 .98246.98246zm7.16214-5.374h3.92986a.98257.98257 0 0 1 0 1.96491h-3.92982a.98257.98257 0 0 1 0-1.96492z"/><path d="m33.96491 19.69857h18.25409a.98243.98243 0 0 0 .98246-.98246v-13.23365a.97906.97906 0 0 0 -.98246-.98246h-18.254a.98242.98242 0 0 0 -.98245.98246v13.23365a.98242.98242 0 0 0 .98236.98246zm7.16209-5.374h3.92982a.98257.98257 0 0 1 0 1.96491h-3.92982a.98257.98257 0 0 1 0-1.96492z"/></svg>