<svg id="Capa_1" enable-background="new 0 0 512 512" height="512" viewBox="0 0 512 512" width="512" xmlns="http://www.w3.org/2000/svg"><g><path d="m296.08 482h173.84v16.23c0 7.6-6.16 13.77-13.77 13.77h-146.3c-7.61 0-13.77-6.17-13.77-13.77z"/><path d="m512 351.44c0 28.27-16.86 53.64-42.08 64.95v35.61h-173.84v-35.61c-25.22-11.31-42.08-36.68-42.08-64.95-.09-40.13 33.62-72.62 73.72-71.1 13.44-16.64 33.53-26.34 55.28-26.34s41.84 9.7 55.28 26.34c40.1-1.52 73.81 30.97 73.72 71.1z"/><path d="m397 30h-61.4v32c0 8.28-6.72 15-15 15s-15-6.72-15-15v-32h-46.4v32c0 8.28-6.72 15-15 15s-15-6.72-15-15v-32h-46.4v32c0 8.28-6.72 15-15 15s-15-6.72-15-15v-32h-46.4v32c0 8.28-6.72 15-15 15s-15-6.72-15-15v-32h-61.4c-8.28 0-15 6.72-15 15v326h126c8.28 0 15 6.72 15 15v126h127.3c-1.44-4.33-2.22-8.96-2.22-13.77v-64.68c-26.06-18.78-42.08-49.23-42.08-82.11-.04-26.89 10.46-52.24 29.57-71.39 16.59-16.63 37.85-26.78 60.74-29.2 18.54-17.21 42.89-26.85 68.69-26.85 9.97 0 19.72 1.44 29 4.2v-183.2c0-8.28-6.72-15-15-15zm-322 233c-8.28 0-15-6.72-15-15s6.72-15 15-15 15 6.72 15 15-6.72 15-15 15zm0-60c-8.28 0-15-6.72-15-15s6.72-15 15-15 15 6.72 15 15-6.72 15-15 15zm0-60c-8.28 0-15-6.72-15-15s6.72-15 15-15 15 6.72 15 15-6.72 15-15 15zm136.05 120h-76.05c-8.28 0-15-6.72-15-15s6.72-15 15-15h76.05c8.28 0 15 6.72 15 15s-6.72 15-15 15zm75.95-60h-152c-8.28 0-15-6.72-15-15s6.72-15 15-15h152c8.28 0 15 6.72 15 15s-6.72 15-15 15zm50-60h-202c-8.28 0-15-6.72-15-15s6.72-15 15-15h202c8.28 0 15 6.72 15 15s-6.72 15-15 15zm-226 360.21v-102.21h-102.21z"/><g><g><path d="m335.6 15v15h-30v-15c0-8.28 6.72-15 15-15s15 6.72 15 15z"/></g><g><path d="m259.2 15v15h-30v-15c0-8.28 6.72-15 15-15s15 6.72 15 15z"/></g><g><path d="m182.8 15v15h-30v-15c0-8.28 6.72-15 15-15s15 6.72 15 15z"/></g><g><path d="m106.4 15v15h-30v-15c0-8.28 6.72-15 15-15s15 6.72 15 15z"/></g></g></g></svg>