<svg id="Layer_1" viewBox="0 0 512 512" xmlns="http://www.w3.org/2000/svg" data-name="Layer 1"><path d="m87.825 493.361 35.7-14.825a8.157 8.157 0 0 0 4.437-10.766l-60.433-145.118a8.249 8.249 0 0 0 -10.769-4.437l-35.685 14.818a8.222 8.222 0 0 0 -4.446 10.789l60.428 145.1a8.247 8.247 0 0 0 10.768 4.437zm241.511-126.069a24.641 24.641 0 0 1 -30.125 17.383l-89.442-23.966a6.991 6.991 0 0 0 -3.609 13.508l89.063 23.865c20.449 5.479 42.2-7.542 47.616-27.173a36.825 36.825 0 0 0 1.166-13.282l93.378-27.394c26.5-7.774 42.672-5.833 51.195.671 6.832 5.213 8.416 13.5 6.9 21.594-2.12 11.336-10.25 22.55-21.525 26.894-47.936 18.474-95.953 36.808-143.829 55.439-20.307 7.9-45.907 17.865-65.57 12.156l-74.226-21.552a48.861 48.861 0 0 0 -36.242 3.074l-22.733 11.053-41.876-100.556q27.219-12.855 54.268-26.022c40.846-19.973 59.646-22.587 98.662 5.081a7.008 7.008 0 0 0 2.243 1.067l67.3 18.033a24.674 24.674 0 0 1 17.385 30.127zm-26.736-174.836a6.985 6.985 0 0 1 10.664-9.024l16.172 19.118 34.308-30.378a6.973 6.973 0 1 1 9.242 10.445l-39.355 34.847a7.009 7.009 0 0 1 -10.252-.446zm140.954-17.156c-21.932 0-32.937-26.571-17.429-42.078a7.319 7.319 0 0 0 0-10.347l-15.75-15.75a7.319 7.319 0 0 0 -10.347 0c-15.507 15.508-42.079 4.5-42.079-17.429a7.315 7.315 0 0 0 -7.315-7.316h-22.274a7.315 7.315 0 0 0 -7.315 7.316c0 21.932-26.571 32.937-42.079 17.429a7.317 7.317 0 0 0 -10.346 0l-15.75 15.75a7.317 7.317 0 0 0 0 10.347c15.507 15.507 4.5 42.078-17.43 42.078a7.315 7.315 0 0 0 -7.315 7.316v22.273a7.315 7.315 0 0 0 7.315 7.316c21.933 0 32.937 26.571 17.43 42.078a7.317 7.317 0 0 0 0 10.347l15.75 15.75a7.316 7.316 0 0 0 10.346 0c15.527-15.527 42.079-4.53 42.079 17.429a7.315 7.315 0 0 0 7.315 7.316h22.274a7.315 7.315 0 0 0 7.315-7.316c0-21.932 26.572-32.936 42.079-17.429a7.317 7.317 0 0 0 10.347 0l15.75-15.75a7.319 7.319 0 0 0 0-10.347c-15.508-15.507-4.5-42.078 17.429-42.078a7.316 7.316 0 0 0 7.316-7.316v-22.271a7.316 7.316 0 0 0 -7.316-7.318zm-104.054 72.881a54.426 54.426 0 1 1 54.426-54.426 54.426 54.426 0 0 1 -54.426 54.426zm-117.59-172.3c-13.658 0-20.511-16.547-10.854-26.205a4.556 4.556 0 0 0 0-6.443l-9.809-9.81a4.557 4.557 0 0 0 -6.444 0c-9.657 9.658-26.205 2.805-26.205-10.854a4.556 4.556 0 0 0 -4.556-4.556h-13.875a4.555 4.555 0 0 0 -4.555 4.556c0 13.659-16.548 20.512-26.206 10.854a4.556 4.556 0 0 0 -6.443 0l-9.809 9.81a4.556 4.556 0 0 0 0 6.443c9.657 9.658 2.8 26.205-10.855 26.205a4.556 4.556 0 0 0 -4.556 4.556v13.863a4.556 4.556 0 0 0 4.557 4.56c13.659 0 20.512 16.547 10.855 26.205a4.557 4.557 0 0 0 0 6.444l9.809 9.809a4.556 4.556 0 0 0 6.443 0 15.351 15.351 0 0 1 26.206 10.854 4.556 4.556 0 0 0 4.555 4.557h13.872a4.556 4.556 0 0 0 4.556-4.557c0-13.659 16.548-20.512 26.205-10.854a4.557 4.557 0 0 0 6.444 0l9.809-9.809a4.557 4.557 0 0 0 0-6.444c-9.657-9.658-2.8-26.2 10.854-26.2a4.556 4.556 0 0 0 4.557-4.556v-13.877a4.556 4.556 0 0 0 -4.558-4.556zm-64.8 45.388a33.9 33.9 0 1 1 33.9-33.9 33.9 33.9 0 0 1 -33.91 33.895z" fill-rule="evenodd"/></svg>